<?xml version="1.0" encoding="UTF-8"?>
<svg version="1.1" xmlns="http://www.w3.org/2000/svg" width="64" height="64">
<path d="M0 0 C19.8 0 39.6 0 60 0 C54 7 54 7 52 9 C51.82487176 11.07857128 51.73273226 13.1645546 51.6875 15.25 C51.20798189 22.62157494 51.20798189 22.62157494 48.875 25.5625 C42.19812165 31.22333165 36.28354295 33.3210874 27.59765625 33.21875 C20.48541797 32.61982467 15.2107987 29.43462842 10.375 24.26171875 C8.56700256 21.28776841 8.76744732 19.2067696 8.8125 15.75 C8.56161788 10.44563522 7.77229409 7.96369533 3.9375 4.25 C2.63217927 3.15802695 1.3218362 2.07192184 0 1 C0 0.67 0 0.34 0 0 Z M22 8 C22 8.99 22 9.98 22 11 C27.28 11 32.56 11 38 11 C38 10.01 38 9.02 38 8 C32.72 8 27.44 8 22 8 Z M14 11 C14 11.66 14 12.32 14 13 C14.66 13 15.32 13 16 13 C16 12.34 16 11.68 16 11 C15.34 11 14.68 11 14 11 Z M44 11 C44 11.66 44 12.32 44 13 C44.66 13 45.32 13 46 13 C46 12.34 46 11.68 46 11 C45.34 11 44.68 11 44 11 Z M16 18 C16 18.99 16 19.98 16 21 C16.66 21 17.32 21 18 21 C18 20.01 18 19.02 18 18 C17.34 18 16.68 18 16 18 Z M42 18 C42 18.99 42 19.98 42 21 C42.66 21 43.32 21 44 21 C44 20.01 44 19.02 44 18 C43.34 18 42.68 18 42 18 Z M21 24 C21 24.66 21 25.32 21 26 C21.99 26 22.98 26 24 26 C24 25.34 24 24.68 24 24 C23.01 24 22.02 24 21 24 Z M36 24 C36 24.66 36 25.32 36 26 C36.99 26 37.98 26 39 26 C39 25.34 39 24.68 39 24 C38.01 24 37.02 24 36 24 Z M29 26 C29 26.66 29 27.32 29 28 C29.66 28 30.32 28 31 28 C31 27.34 31 26.68 31 26 C30.34 26 29.68 26 29 26 Z " fill="#000000" transform="translate(2,10)"/>
<path d="M0 0 C1.14626322 0.97866338 2.29199788 1.95794587 3.4375 2.9375 C4.07558594 3.48277344 4.71367188 4.02804688 5.37109375 4.58984375 C6.26991149 5.36795695 7.15936528 6.15936528 8 7 C8.13255476 8.89406018 8.23083609 10.79056412 8.3125 12.6875 C8.81539163 18.93666801 10.05088648 22.34579784 14.796875 26.6171875 C20.62048308 31.33476149 26.2689892 33.50730346 33.8984375 33.2421875 C41.84004614 32.32698353 47.67481496 28.93815598 53 23 C55.14601727 19.70482509 55.16258903 17.06862978 55.1875 13.1875 C55.4809891 8.48591971 56.13867661 6.09763164 59.5 2.75 C62.6952381 0 62.6952381 0 64 0 C64.11674705 3.70806596 64.18743274 7.4156554 64.25 11.125 C64.28351563 12.17171875 64.31703125 13.2184375 64.3515625 14.296875 C64.43129408 20.59566985 64.16121839 24.18420793 60 29 C59.46375 29.825 58.9275 30.65 58.375 31.5 C52.5908736 37.5885541 44.61843771 41.58453385 36.265625 42.3359375 C24.48569639 42.60250445 16.53744939 40.32106858 7.10546875 33.171875 C2.34606018 28.26235522 -0.27470618 24.17372764 -0.48828125 17.1875 C-0.45542981 15.12442941 -0.39635843 13.06162733 -0.3125 11 C-0.28994141 9.93910156 -0.26738281 8.87820312 -0.24414062 7.78515625 C-0.1856597 5.18860301 -0.10376454 2.59507134 0 0 Z " fill="#000000" transform="translate(0,12)"/>
</svg>
