<?xml version="1.0" encoding="UTF-8"?>
<svg version="1.1" xmlns="http://www.w3.org/2000/svg" width="64" height="64">
<path d="M0 0 C2.475 0.495 2.475 0.495 5 1 C5 2.32 5 3.64 5 5 C6.051875 5.2475 7.10375 5.495 8.1875 5.75 C13.26029959 7.24320311 16.50587959 9.77830821 19.25 14.3125 C21.68214633 19.46748743 21.48948479 24.89144742 21.734375 30.49609375 C22.15137821 35.99685668 23.51509424 39.35010471 27.25 43.5 C29 46 29 46 28.875 49.75 C28.58625 50.8225 28.2975 51.895 28 53 C25.60460279 54.1976986 24.08893873 54.13937179 21.41430664 54.16113281 C20.46314468 54.17074036 19.51198273 54.1803479 18.53199768 54.19024658 C17.50179001 54.19449646 16.47158234 54.19874634 15.41015625 54.203125 C13.82695839 54.21167511 13.82695839 54.21167511 12.21177673 54.22039795 C9.97656255 54.22985489 7.74133439 54.23638468 5.50610352 54.24023438 C2.07999498 54.24995039 -1.34551647 54.28097193 -4.77148438 54.3125 C-6.94010059 54.31902881 -9.10872111 54.32427976 -11.27734375 54.328125 C-12.30552719 54.3404718 -13.33371063 54.3528186 -14.39305115 54.36553955 C-15.34736526 54.36253845 -16.30167938 54.35953735 -17.28491211 54.35644531 C-18.54494301 54.36191376 -18.54494301 54.36191376 -19.83042908 54.36749268 C-22.50400417 53.91462928 -23.3844396 53.14332498 -25 51 C-25.4602434 47.98177225 -25.3179012 46.52205793 -23.72265625 43.90234375 C-22.90087891 42.92974609 -22.90087891 42.92974609 -22.0625 41.9375 C-17.89300203 36.95973055 -17.91528501 33.18004538 -17.6875 26.75 C-17.30426446 19.85673734 -16.53449477 14.33300338 -11.35546875 9.44921875 C-8.07677303 6.91340833 -5.20782118 5.3825292 -1 5 C-0.67 3.35 -0.34 1.7 0 0 Z " fill="#000000" transform="translate(30,0)"/>
<path d="M0 0 C6.6 0 13.2 0 20 0 C18.92124473 4.31502108 18.60598946 5.53737305 15 8 C11.55302664 8.63466232 8.44457622 8.65663973 5 8 C1.875 5.6875 1.875 5.6875 0 3 C0 2.01 0 1.02 0 0 Z " fill="#000000" transform="translate(22,56)"/>
</svg>
