<?xml version="1.0" encoding="UTF-8"?>
<svg version="1.1" xmlns="http://www.w3.org/2000/svg" width="64" height="64">
<path d="M0 0 C5.67830078 -0.02464705 11.35657069 -0.04283462 17.03491211 -0.05493164 C18.96818585 -0.05997256 20.90145576 -0.06680519 22.8347168 -0.07543945 C25.60726872 -0.08751565 28.37977041 -0.09323057 31.15234375 -0.09765625 C32.45702858 -0.10539818 32.45702858 -0.10539818 33.78807068 -0.11329651 C35.85905814 -0.11349185 37.92994324 -0.06208168 40 0 C41.70565618 1.70565618 41.12752055 3.90733495 41.12939453 6.23828125 C41.13254669 7.35614014 41.13569885 8.47399902 41.13894653 9.62573242 C41.1369223 10.84236572 41.13489807 12.05899902 41.1328125 13.3125 C41.13376923 14.55169189 41.13472595 15.79088379 41.13571167 17.06762695 C41.13639374 19.69388281 41.13503538 22.32004633 41.13037109 24.94628906 C41.12467381 28.31928714 41.12795302 31.69220565 41.13394356 35.06520081 C41.1384177 38.27263677 41.13528882 41.480063 41.1328125 44.6875 C41.13483673 45.9041333 41.13686096 47.1207666 41.13894653 48.37426758 C41.13421829 50.05105591 41.13421829 50.05105591 41.12939453 51.76171875 C41.12859894 52.75131592 41.12780334 53.74091309 41.12698364 54.76049805 C41 57 41 57 40 58 C38.16825069 58.11291605 36.33416766 58.18767391 34.5 58.25 C26.15053512 58.75733103 18.13021324 60.47095914 9.97265625 62.27246094 C3.82805102 63.59108706 -1.71448258 64.25614961 -8 64 C-10.12122075 58.0191444 -11.77449181 52.08621828 -13.04296875 45.87109375 C-13.21629227 45.03715591 -13.38961578 44.20321808 -13.56819153 43.3440094 C-13.92967896 41.59588078 -14.28834768 39.84716708 -14.64428711 38.09790039 C-15.18724005 35.4387731 -15.74447714 32.78290421 -16.30273438 30.12695312 C-16.65451425 28.41684507 -17.00545437 26.70656402 -17.35546875 24.99609375 C-17.52104782 24.21254013 -17.68662689 23.42898651 -17.85722351 22.62168884 C-18.85251463 17.65355925 -19.15150884 13.06744887 -19 8 C-14.52182395 6.35178243 -10.34492725 4.91350383 -5.5625 4.5625 C-3.7990625 4.2840625 -3.7990625 4.2840625 -2 4 C-0.74155287 2.03091012 -0.74155287 2.03091012 0 0 Z M-9.125 10 C-10.03507813 10.185625 -10.94515625 10.37125 -11.8828125 10.5625 C-12.58148438 10.706875 -13.28015625 10.85125 -14 11 C-13.38682845 17.23799854 -12.44312426 23.27941765 -11.15234375 29.41015625 C-10.97619034 30.26306747 -10.80003693 31.1159787 -10.61854553 31.99473572 C-10.06204787 34.68480624 -9.49987789 37.37365333 -8.9375 40.0625 C-8.55626291 41.90031231 -8.17540005 43.7382023 -7.79492188 45.57617188 C-6.86760125 50.05169003 -5.93519607 54.52612115 -5 59 C-3.35 59 -1.7 59 0 59 C-0.495 57.515 -0.495 57.515 -1 56 C-1.11425138 54.45102275 -1.17617915 52.89788234 -1.20532227 51.3449707 C-1.22526749 50.40422195 -1.24521271 49.46347321 -1.26576233 48.49421692 C-1.28247482 47.48163315 -1.29918732 46.46904938 -1.31640625 45.42578125 C-1.33718735 44.38681198 -1.35796844 43.34784271 -1.37937927 42.27738953 C-1.44480656 38.95582747 -1.50372821 35.63418584 -1.5625 32.3125 C-1.60569169 30.0618407 -1.64930619 27.81118948 -1.69335938 25.56054688 C-1.80048098 20.0404489 -1.90226016 14.52027163 -2 9 C-4.47675731 9 -6.69859695 9.5022763 -9.125 10 Z M12.046875 23.765625 C10.09016207 25.90157881 9.25293767 27.01041869 8.75 29.8125 C8.7616183 32.91143193 8.7616183 32.91143193 10.125 34.9375 C12.53579338 36.30361625 14.27294446 36.22111261 17 36 C17 37.32 17 38.64 17 40 C18.65 40 20.3 40 22 40 C21.67 38.35 21.34 36.7 21 35 C21.9075 35.2475 22.815 35.495 23.75 35.75 C27.03478823 36.33879744 27.03478823 36.33879744 29.4375 34.375 C31.23332862 32.14635067 31.23332862 32.14635067 30.91015625 29.65234375 C29.69710224 26.11730654 27.82180919 24.60447577 25 22.1875 C24.0925 21.39730469 23.185 20.60710938 22.25 19.79296875 C17.92165829 16.34382145 15.63559351 20.54263576 12.046875 23.765625 Z " fill="#000000" transform="translate(21,0)"/>
</svg>
