<?xml version="1.0" encoding="UTF-8"?>
<svg version="1.1" xmlns="http://www.w3.org/2000/svg" width="64" height="64">
<path d="M0 0 C4.35263857 0.51487666 6.26263983 2.58482117 9.13818359 5.640625 C9.66239899 6.17333008 10.18661438 6.70603516 10.72671509 7.25488281 C12.39154489 8.95319762 14.03426416 10.67119175 15.67724609 12.390625 C16.804754 13.54823863 17.93364626 14.70450562 19.06396484 15.859375 C21.82634302 18.68777189 24.56908013 21.53400123 27.30224609 24.390625 C31.15619588 22.82206632 33.45642408 20.38093389 36.29443359 17.3828125 C37.25607847 16.38614459 38.21833705 15.39006853 39.18115234 14.39453125 C40.68433851 12.82938844 42.18236451 11.26018846 43.66992188 9.68017578 C45.11455141 8.15070822 46.5775797 6.64093668 48.04443359 5.1328125 C49.3416333 3.76938721 49.3416333 3.76938721 50.66503906 2.37841797 C53.8223159 -0.00137725 55.43654712 -0.11683861 59.30224609 0.390625 C60.30224609 1.390625 60.30224609 1.390625 60.69287109 4.08837891 C60.17799443 8.44101748 58.10804993 10.35101874 55.05224609 13.2265625 C54.51954102 13.75077789 53.98683594 14.27499329 53.43798828 14.81509399 C51.73967347 16.47992379 50.02167934 18.12264306 48.30224609 19.765625 C47.14463247 20.8931329 45.98836547 22.02202517 44.83349609 23.15234375 C42.00509921 25.91472193 39.15886987 28.65745904 36.30224609 31.390625 C37.87080477 35.24457479 40.3119372 37.54480299 43.31005859 40.3828125 C44.3067265 41.34445737 45.30280256 42.30671595 46.29833984 43.26953125 C47.86348265 44.77271741 49.43268263 46.27074342 51.01269531 47.75830078 C52.54216288 49.20293032 54.05193442 50.66595861 55.56005859 52.1328125 C56.92348389 53.43001221 56.92348389 53.43001221 58.31445312 54.75341797 C60.69424835 57.91069481 60.8097097 59.52492602 60.30224609 63.390625 C59.30224609 64.390625 59.30224609 64.390625 56.60449219 64.78125 C52.25185362 64.26637334 50.34185236 62.19642883 47.46630859 59.140625 C46.9420932 58.60791992 46.41787781 58.07521484 45.8777771 57.52636719 C44.2129473 55.82805238 42.57022803 54.11005825 40.92724609 52.390625 C39.79973819 51.23301137 38.67084593 50.07674438 37.54052734 48.921875 C34.77814917 46.09347811 32.03541206 43.24724877 29.30224609 40.390625 C25.4482963 41.95918368 23.14806811 44.40031611 20.31005859 47.3984375 C19.34841372 48.39510541 18.38615514 49.39118147 17.42333984 50.38671875 C15.92015368 51.95186156 14.42212768 53.52106154 12.93457031 55.10107422 C11.48994078 56.63054178 10.02691249 58.14031332 8.56005859 59.6484375 C7.26285889 61.01186279 7.26285889 61.01186279 5.93945312 62.40283203 C2.78217629 64.78262725 1.16794507 64.89808861 -2.69775391 64.390625 C-3.69775391 63.390625 -3.69775391 63.390625 -4.08837891 60.69287109 C-3.57350225 56.34023252 -1.50355774 54.43023126 1.55224609 51.5546875 C2.08495117 51.03047211 2.61765625 50.50625671 3.16650391 49.96615601 C4.86481871 48.30132621 6.58281285 46.65860694 8.30224609 45.015625 C9.45985972 43.8881171 10.61612671 42.75922483 11.77099609 41.62890625 C14.59939298 38.86652807 17.44562232 36.12379096 20.30224609 33.390625 C18.73368741 29.53667521 16.29255498 27.23644701 13.29443359 24.3984375 C12.29776569 23.43679263 11.30168962 22.47453405 10.30615234 21.51171875 C8.74100954 20.00853259 7.17180955 18.51050658 5.59179688 17.02294922 C4.06232931 15.57831968 2.55255777 14.11529139 1.04443359 12.6484375 C0.1354834 11.7836377 -0.7734668 10.91883789 -1.70996094 10.02783203 C-4.08975616 6.87055519 -4.20521752 5.25632398 -3.69775391 1.390625 C-2.69775391 0.390625 -2.69775391 0.390625 0 0 Z " fill="#000000" transform="translate(3.69775390625,-0.390625)"/>
</svg>
