<?xml version="1.0" encoding="UTF-8"?>
<svg version="1.1" xmlns="http://www.w3.org/2000/svg" width="64" height="64">
<path d="M0 0 C1.62035156 -0.03577148 1.62035156 -0.03577148 3.2734375 -0.07226562 C7.92428655 -0.06365294 11.10808125 0.06723041 15.21484375 2.34765625 C17.97488393 7.31814436 17.68587962 11.97373685 17.5625 17.5625 C17.57345703 18.64273438 17.58441406 19.72296875 17.59570312 20.8359375 C17.52316066 28.67052347 17.52316066 28.67052347 15.3515625 32.37304688 C12.34781978 35.16972096 10.86661418 35.18261829 6.80859375 35.15625 C5.61685547 35.15367188 4.42511719 35.15109375 3.19726562 35.1484375 C1.95654297 35.12007812 0.71582031 35.09171875 -0.5625 35.0625 C-1.80708984 35.06507812 -3.05167969 35.06765625 -4.33398438 35.0703125 C-13.3405653 34.97278591 -13.3405653 34.97278591 -15.84936523 33.41186523 C-18.53351456 29.09774872 -17.5101812 23.03997478 -17.5 18.125 C-17.52835938 16.88427734 -17.55671875 15.64355469 -17.5859375 14.36523438 C-17.58851562 13.17349609 -17.59109375 11.98175781 -17.59375 10.75390625 C-17.60083984 9.66279541 -17.60792969 8.57168457 -17.61523438 7.44750977 C-17 4.5625 -17 4.5625 -14.81054688 2.2109375 C-10.05597778 -0.57770483 -5.3874313 -0.05464578 0 0 Z M-9 9.5625 C-8.67 10.8825 -8.34 12.2025 -8 13.5625 C-7.01 13.2325 -6.02 12.9025 -5 12.5625 C-5 11.5725 -5 10.5825 -5 9.5625 C-6.32 9.5625 -7.64 9.5625 -9 9.5625 Z M5 9.5625 C5 10.5525 5 11.5425 5 12.5625 C5.99 12.5625 6.98 12.5625 8 12.5625 C8 11.5725 8 10.5825 8 9.5625 C7.01 9.5625 6.02 9.5625 5 9.5625 Z M-1 15.5625 C-1.33 16.8825 -1.66 18.2025 -2 19.5625 C-0.68 19.2325 0.64 18.9025 2 18.5625 C1.67 17.5725 1.34 16.5825 1 15.5625 C0.34 15.5625 -0.32 15.5625 -1 15.5625 Z M-8 22.5625 C-8 23.8825 -8 25.2025 -8 26.5625 C-7.01 26.2325 -6.02 25.9025 -5 25.5625 C-5.33 24.5725 -5.66 23.5825 -6 22.5625 C-6.66 22.5625 -7.32 22.5625 -8 22.5625 Z M5 22.5625 C5 23.8825 5 25.2025 5 26.5625 C5.99 26.5625 6.98 26.5625 8 26.5625 C8 25.2425 8 23.9225 8 22.5625 C7.01 22.5625 6.02 22.5625 5 22.5625 Z " fill="#000000" transform="translate(21,25.4375)"/>
<path d="M0 0 C4.27207133 0.57875573 8.16599826 2.07816606 12.17089844 3.62353516 C13.02425781 3.93226562 13.87761719 4.24099609 14.75683594 4.55908203 C21.03381958 6.91791686 21.03381958 6.91791686 23.29589844 10.31103516 C23.79284152 16.48638122 22.70749712 21.28209845 20.60839844 27.06103516 C20.36412109 27.80224609 20.11984375 28.54345703 19.86816406 29.30712891 C18.23950254 33.90036672 16.70866646 36.81223881 12.29589844 39.31103516 C9.83886719 39.48291016 9.83886719 39.48291016 7.48339844 39.06103516 C6.69320312 38.93212891 5.90300781 38.80322266 5.08886719 38.67041016 C4.4971875 38.55181641 3.90550781 38.43322266 3.29589844 38.31103516 C3.19792969 37.49119141 3.09996094 36.67134766 2.99902344 35.82666016 C2.84949219 34.74900391 2.69996094 33.67134766 2.54589844 32.56103516 C2.40667969 31.49369141 2.26746094 30.42634766 2.12402344 29.32666016 C1.14982559 25.77910951 0.25675584 24.47166083 -2.70410156 22.31103516 C-5.72711555 21.40636585 -5.72711555 21.40636585 -8.95410156 21.06103516 C-10.03175781 20.91150391 -11.10941406 20.76197266 -12.21972656 20.60791016 C-13.03957031 20.50994141 -13.85941406 20.41197266 -14.70410156 20.31103516 C-13.77717355 17.53625066 -12.83816481 14.76661727 -11.89160156 11.99853516 C-11.63056641 11.21285156 -11.36953125 10.42716797 -11.10058594 9.61767578 C-10.83955078 8.86035156 -10.57851563 8.10302734 -10.30957031 7.32275391 C-9.95608521 6.27800903 -9.95608521 6.27800903 -9.59545898 5.2121582 C-7.43570326 0.60574411 -5.05061409 -0.19763273 0 0 Z M-1.70410156 9.31103516 C-1.37410156 10.63103516 -1.04410156 11.95103516 -0.70410156 13.31103516 C0.28589844 12.98103516 1.27589844 12.65103516 2.29589844 12.31103516 C1.96589844 11.32103516 1.63589844 10.33103516 1.29589844 9.31103516 C0.30589844 9.31103516 -0.68410156 9.31103516 -1.70410156 9.31103516 Z M3.29589844 17.31103516 C2.96589844 18.63103516 2.63589844 19.95103516 2.29589844 21.31103516 C3.61589844 20.98103516 4.93589844 20.65103516 6.29589844 20.31103516 C5.96589844 19.32103516 5.63589844 18.33103516 5.29589844 17.31103516 C4.63589844 17.31103516 3.97589844 17.31103516 3.29589844 17.31103516 Z M6.29589844 26.31103516 C6.62589844 27.63103516 6.95589844 28.95103516 7.29589844 30.31103516 C8.28589844 29.98103516 9.27589844 29.65103516 10.29589844 29.31103516 C9.96589844 28.32103516 9.63589844 27.33103516 9.29589844 26.31103516 C8.30589844 26.31103516 7.31589844 26.31103516 6.29589844 26.31103516 Z " fill="#000000" transform="translate(36.7041015625,3.68896484375)"/>
</svg>
