<?xml version="1.0" encoding="UTF-8"?>
<svg version="1.1" xmlns="http://www.w3.org/2000/svg" width="64" height="64">
<path d="M0 0 C2.875 1.875 2.875 1.875 5 4 C5 4.66 5 5.32 5 6 C13.58 6 22.16 6 31 6 C31.495 8.475 31.495 8.475 32 11 C30.24369985 12.75630015 27.73875238 12.15056804 25.35546875 12.17578125 C23.62780273 12.21155273 23.62780273 12.21155273 21.86523438 12.24804688 C19.42530477 12.29080719 16.98514721 12.3221704 14.54492188 12.34179688 C13.38927734 12.36951172 12.23363281 12.39722656 11.04296875 12.42578125 C9.45005005 12.44765503 9.45005005 12.44765503 7.82495117 12.4699707 C4.36342013 13.11943781 3.27671602 14.39753895 1 17 C-1.73330682 17.72603462 -4.23961553 17.59481088 -7 17 C-7.61875 16.360625 -8.2375 15.72125 -8.875 15.0625 C-11.91405831 12.11282576 -14.74427586 12.38645731 -18.85546875 12.17578125 C-21 12 -21 12 -22 11 C-22 9.35 -22 7.7 -22 6 C-18.37 6 -14.74 6 -11 6 C-10.34 4.68 -9.68 3.36 -9 2 C-5.48746854 -0.34168764 -4.13530644 -0.49623677 0 0 Z " fill="#000000" transform="translate(27,42)"/>
<path d="M0 0 C0.51433594 0.65226563 1.02867188 1.30453125 1.55859375 1.9765625 C5.4676797 5.21641293 9.76241474 4.63808443 14.6875 4.6875 C16.60815674 4.72939139 18.52874171 4.77477014 20.44921875 4.82421875 C21.72285278 4.84101685 21.72285278 4.84101685 23.0222168 4.8581543 C25 5 25 5 26 6 C26 7.65 26 9.3 26 11 C18.74 11 11.48 11 4 11 C3.34 12.32 2.68 13.64 2 15 C-1 17 -1 17 -4.4375 16.875 C-8 16 -8 16 -9.70703125 13.9921875 C-12.95113885 11.17362724 -16.14143712 11.3298484 -20.25 11.25 C-20.99507812 11.22035156 -21.74015625 11.19070312 -22.5078125 11.16015625 C-24.33796672 11.0897657 -26.16898769 11.04258168 -28 11 C-28.042721 9.33388095 -28.04063832 7.66617115 -28 6 C-27 5 -27 5 -23.40234375 4.90234375 C-21.91403133 4.9090178 -20.42573568 4.92097817 -18.9375 4.9375 C-18.17888672 4.94201172 -17.42027344 4.94652344 -16.63867188 4.95117188 C-14.75908129 4.9629932 -12.87953101 4.98092922 -11 5 C-10.71125 4.360625 -10.4225 3.72125 -10.125 3.0625 C-7.87222201 -1.06759299 -4.29056513 -0.3698763 0 0 Z " fill="#000000" transform="translate(33,5)"/>
<path d="M0 0 C0.79148438 -0.02578125 1.58296875 -0.0515625 2.3984375 -0.078125 C5.12278182 0.32335732 5.98847004 1.07499889 7.625 3.25 C7.625 3.91 7.625 4.57 7.625 5.25 C10.265 5.25 12.905 5.25 15.625 5.25 C16.00718767 6.90614657 16.33895102 8.57457024 16.625 10.25 C15.625 11.25 15.625 11.25 13.77734375 11.34765625 C11.7265625 11.31510417 9.67578125 11.28255208 7.625 11.25 C7.315625 11.889375 7.00625 12.52875 6.6875 13.1875 C5.625 15.25 5.625 15.25 4.625 16.25 C2.6640625 16.453125 2.6640625 16.453125 0.25 16.5 C-0.54148438 16.52578125 -1.33296875 16.5515625 -2.1484375 16.578125 C-4.87278182 16.17664268 -5.73847004 15.42500111 -7.375 13.25 C-7.375 12.59 -7.375 11.93 -7.375 11.25 C-16.945 11.25 -26.515 11.25 -36.375 11.25 C-36.705 9.6 -37.035 7.95 -37.375 6.25 C-36.375 5.25 -36.375 5.25 -33.59936523 5.13647461 C-32.38966064 5.14171143 -31.17995605 5.14694824 -29.93359375 5.15234375 C-28.62841797 5.15556641 -27.32324219 5.15878906 -25.97851562 5.16210938 C-24.5898431 5.17046599 -23.20117123 5.17893095 -21.8125 5.1875 C-20.41992344 5.19251334 -19.02734519 5.19707653 -17.63476562 5.20117188 C-14.2148013 5.21300566 -10.79492156 5.2294912 -7.375 5.25 C-7.065625 4.610625 -6.75625 3.97125 -6.4375 3.3125 C-4.68748747 -0.08458315 -3.73762851 0.07257531 0 0 Z " fill="#000000" transform="translate(42.375,23.75)"/>
</svg>
