<?xml version="1.0" encoding="UTF-8"?>
<svg version="1.1" xmlns="http://www.w3.org/2000/svg" width="64" height="64">
<path d="M0 0 C1.12535156 0.00580078 1.12535156 0.00580078 2.2734375 0.01171875 C3.02367187 0.00785156 3.77390625 0.00398437 4.546875 0 C10.14682697 0.01010822 10.14682697 0.01010822 11.2734375 1.13671875 C11.37190717 2.69670923 11.40142368 4.26112419 11.40283203 5.82421875 C11.40598419 6.82195313 11.40913635 7.8196875 11.41238403 8.84765625 C11.4103598 9.93304688 11.40833557 11.0184375 11.40625 12.13671875 C11.40768509 13.79574219 11.40768509 13.79574219 11.40914917 15.48828125 C11.40983117 17.83203183 11.40797554 20.17578428 11.40380859 22.51953125 C11.39846064 26.12113663 11.40375297 29.72261728 11.41015625 33.32421875 C11.40949547 35.59505236 11.40821432 37.86588589 11.40625 40.13671875 C11.40827423 41.22210938 11.41029846 42.3075 11.41238403 43.42578125 C11.40923187 44.42351563 11.40607971 45.42125 11.40283203 46.44921875 C11.40203644 47.33222656 11.40124084 48.21523438 11.40042114 49.125 C11.2734375 51.13671875 11.2734375 51.13671875 10.2734375 52.13671875 C7.5961237 52.23653089 4.95039575 52.2755175 2.2734375 52.26171875 C1.14808594 52.26751953 1.14808594 52.26751953 0 52.2734375 C-5.59995197 52.26332928 -5.59995197 52.26332928 -6.7265625 51.13671875 C-6.82503217 49.57672827 -6.85454868 48.01231331 -6.85595703 46.44921875 C-6.85910919 45.45148437 -6.86226135 44.45375 -6.86550903 43.42578125 C-6.8634848 42.34039062 -6.86146057 41.255 -6.859375 40.13671875 C-6.86033173 39.03070313 -6.86128845 37.9246875 -6.86227417 36.78515625 C-6.86295617 34.44140567 -6.86110054 32.09765322 -6.85693359 29.75390625 C-6.85158564 26.15230087 -6.85687797 22.55082022 -6.86328125 18.94921875 C-6.86262047 16.67838514 -6.86133932 14.40755161 -6.859375 12.13671875 C-6.86139923 11.05132812 -6.86342346 9.9659375 -6.86550903 8.84765625 C-6.86235687 7.84992187 -6.85920471 6.8521875 -6.85595703 5.82421875 C-6.85516144 4.94121094 -6.85436584 4.05820313 -6.85354614 3.1484375 C-6.58442515 -1.11507029 -3.58546073 0.00647195 0 0 Z " fill="#000000" transform="translate(29.7265625,5.86328125)"/>
<path d="M0 0 C5.28 0 10.56 0 16 0 C16 11.88 16 23.76 16 36 C10.72 36 5.44 36 0 36 C0 24.12 0 12.24 0 0 Z " fill="#000000" transform="translate(42,22)"/>
<path d="M0 0 C1.27875 0.00257812 2.5575 0.00515625 3.875 0.0078125 C5.15375 0.00523438 6.4325 0.00265625 7.75 0 C10.875 0.1328125 10.875 0.1328125 11.875 1.1328125 C11.96248207 3.05948757 11.98197334 4.98933111 11.97265625 6.91796875 C11.96943359 8.08779297 11.96621094 9.25761719 11.96289062 10.46289062 C11.95451172 11.69458984 11.94613281 12.92628906 11.9375 14.1953125 C11.93298828 15.43087891 11.92847656 16.66644531 11.92382812 17.93945312 C11.91199618 21.00392663 11.89406008 24.06837543 11.875 27.1328125 C6.595 27.1328125 1.315 27.1328125 -4.125 27.1328125 C-4.15182299 22.82027167 -4.17175244 18.50789543 -4.1875 14.1953125 C-4.19587891 12.96361328 -4.20425781 11.73191406 -4.21289062 10.46289062 C-4.21611328 9.29306641 -4.21933594 8.12324219 -4.22265625 6.91796875 C-4.22789307 5.83394775 -4.23312988 4.74992676 -4.23852539 3.63305664 C-4.06958312 -0.08766976 -3.79804441 0.16141689 0 0 Z " fill="#000000" transform="translate(10.125,30.8671875)"/>
</svg>
