<?xml version="1.0" encoding="UTF-8"?>
<svg version="1.1" xmlns="http://www.w3.org/2000/svg" width="64" height="64">
<path d="M0 0 C3.1547902 1.52671135 5.90833967 3.64370889 8.75 5.6875 C9.91982422 6.48317383 9.91982422 6.48317383 11.11328125 7.29492188 C11.85449219 7.82021484 12.59570312 8.34550781 13.359375 8.88671875 C14.37209473 9.60154419 14.37209473 9.60154419 15.40527344 10.33081055 C17.46632973 12.48810415 17.76352733 14.05775128 18 17 C16.78515625 19.23828125 16.78515625 19.23828125 15.0625 21.3125 C14.49660156 22.00988281 13.93070313 22.70726563 13.34765625 23.42578125 C12.68056641 24.20501953 12.68056641 24.20501953 12 25 C7.25 23.125 7.25 23.125 5 22 C4.72027344 22.95519531 4.44054688 23.91039063 4.15234375 24.89453125 C-0.06396048 38.72681041 -6.10189291 50.20567134 -18.99609375 57.75390625 C-28.21885859 62.53224259 -35.65571377 64.33670371 -46 64 C-46.02685938 61.85423363 -46.04633088 59.70837355 -46.0625 57.5625 C-46.07410156 56.36753906 -46.08570313 55.17257813 -46.09765625 53.94140625 C-46 51 -46 51 -45 50 C-43.16999684 49.72668784 -41.33572534 49.4817835 -39.5 49.25 C-32.96447006 48.2139744 -27.08960369 46.16405197 -22.37890625 41.33984375 C-21 40 -21 40 -19 40 C-18.72414063 39.44441406 -18.44828125 38.88882813 -18.1640625 38.31640625 C-17.35869969 36.7137883 -16.54007969 35.11778922 -15.7109375 33.52734375 C-15.27007813 32.67269531 -14.82921875 31.81804688 -14.375 30.9375 C-13.70597656 29.65166016 -13.70597656 29.65166016 -13.0234375 28.33984375 C-11.7996307 25.96755012 -11.7996307 25.96755012 -12 23 C-13.65 23.33 -15.3 23.66 -17 24 C-18.00842453 22.56839732 -19.00647891 21.12948547 -20 19.6875 C-20.556875 18.88699219 -21.11375 18.08648438 -21.6875 17.26171875 C-23 15 -23 15 -23 12 C-20.37318931 9.59171648 -17.29017877 7.76165133 -14.3125 5.8125 C-13.08756836 4.97428711 -13.08756836 4.97428711 -11.83789062 4.11914062 C-11.04189453 3.59126953 -10.24589844 3.06339844 -9.42578125 2.51953125 C-8.69786377 2.03589111 -7.96994629 1.55225098 -7.2199707 1.05395508 C-4.54602446 -0.2155298 -2.93053941 -0.36635343 0 0 Z " fill="#000000" transform="translate(46,0)"/>
</svg>
