<?xml version="1.0" encoding="UTF-8"?>
<svg version="1.1" xmlns="http://www.w3.org/2000/svg" width="64" height="64">
<path d="M0 0 C6.29671422 3.64546613 10.25669741 9.1292571 12.5 16 C13.54286521 24.99059588 12.88042954 32.55235279 7.5 40 C3.10960112 44.99347565 -2.19264291 47.63341109 -8.70703125 48.35546875 C-16.70289487 48.67599633 -23.01393814 47.90933964 -29.5 43 C-35.15318694 37.58686346 -38.28226441 30.47060658 -38.59375 22.64453125 C-38.12321229 15.80997098 -35.57067812 10.3976273 -31.125 5.25 C-22.12702762 -2.46254775 -11.23434989 -5.0956412 0 0 Z M-18.5 1 C-17.51 3.97 -16.52 6.94 -15.5 10 C-14.84 10 -14.18 10 -13.5 10 C-13.5 7.03 -13.5 4.06 -13.5 1 C-15.15 1 -16.8 1 -18.5 1 Z M-3.5 3 C-4.985 6.96 -4.985 6.96 -6.5 11 C-5.51 11.495 -5.51 11.495 -4.5 12 C-2.85 9.69 -1.2 7.38 0.5 5 C-0.82 4.34 -2.14 3.68 -3.5 3 Z M-28.5 7 C-29.16 8.32 -29.82 9.64 -30.5 11 C-27.035 12.98 -27.035 12.98 -23.5 15 C-23.15944803 11.75434142 -23.15944803 11.75434142 -26 9.3125 C-26.825 8.549375 -27.65 7.78625 -28.5 7 Z M-21.5 17 C-23.10677955 20.21355911 -22.96831682 23.51438483 -22.5 27 C-20.48399796 30.70944375 -18.98735217 31.78339903 -15.125 33.5 C-10.7496517 34.10349632 -9.1134179 33.46369402 -5.5 31 C-2.61122335 28.40010102 -2.50105058 27.0094552 -2.0625 23.0625 C-2.20740272 18.97471813 -3.53684556 16.87600284 -6.5 14 C-12.21872108 11.14063946 -17.27770087 12.64975241 -21.5 17 Z M0.5 17 C0.5 17.66 0.5 18.32 0.5 19 C4.955 18.505 4.955 18.505 9.5 18 C9.17 16.68 8.84 15.36 8.5 14 C4.90142046 14 3.40548882 14.95830515 0.5 17 Z M-34.5 21 C-34.5 22.32 -34.5 23.64 -34.5 25 C-30.045 24.505 -30.045 24.505 -25.5 24 C-25.5 23.34 -25.5 22.68 -25.5 22 C-28.47 21.67 -31.44 21.34 -34.5 21 Z M0.5 27 C1.17171444 30.06892234 1.17171444 30.06892234 3.375 31.1875 C5.58785353 32.17856873 5.58785353 32.17856873 8.5 32 C8.83 30.68 9.16 29.36 9.5 28 C6.53 27.67 3.56 27.34 0.5 27 Z M-30.5 35 C-29.84 36.32 -29.18 37.64 -28.5 39 C-25.07421051 35.82460444 -25.07421051 35.82460444 -22.5 32 C-26.07575896 32 -27.55295935 33.08840607 -30.5 35 Z M-6.5 35 C-5.51 37.64 -4.52 40.28 -3.5 43 C-2.18 42.34 -0.86 41.68 0.5 41 C-1.11594832 38.95880212 -2.7856382 36.95927063 -4.5 35 C-5.16 35 -5.82 35 -6.5 35 Z M-15.5 36 C-16.49 38.97 -17.48 41.94 -18.5 45 C-16.85 45 -15.2 45 -13.5 45 C-13.5 42.36 -13.5 39.72 -13.5 37 C-14.16 36.67 -14.82 36.34 -15.5 36 Z " fill="#000000" transform="translate(44.5,9)"/>
<path d="M0 0 C3.58598889 2.54054385 6.15992797 5.04327701 8.4921875 8.765625 C8.90210938 9.38695312 9.31203125 10.00828125 9.734375 10.6484375 C13.92029874 18.24083711 13.82290472 28.22228224 11.83203125 36.515625 C8.66076737 44.42319207 3.05583037 50.61024028 -4.7109375 54.07421875 C-12.24379855 56.97273267 -22.91263637 57.32114467 -30.5078125 54.203125 C-39.36720063 49.37535135 -44.35289282 43.23038404 -47.5078125 33.765625 C-48.47870256 23.15957288 -47.88284136 14.76400644 -41.5078125 5.765625 C-39.3947345 3.28024278 -37.26728694 1.49459031 -34.5078125 -0.234375 C-33.88648438 -0.64429688 -33.26515625 -1.05421875 -32.625 -1.4765625 C-22.455808 -7.08315125 -9.72162164 -5.63801363 0 0 Z M-39.03515625 7.8046875 C-44.80249251 15.48427054 -45.72339161 23.29916825 -44.5078125 32.765625 C-41.89082616 41.64167084 -36.03889061 47.29412785 -28.0703125 51.640625 C-19.80807671 54.24975209 -13.57913261 54.09073294 -5.5078125 50.765625 C0.74627322 47.39804038 6.47889654 41.75373457 9.015625 34.96875 C10.82129204 26.62124007 10.44711268 18.3889546 6.10546875 10.953125 C1.63315614 4.8889723 -3.99794391 0.22082445 -11.5078125 -1.234375 C-22.1921507 -2.41823519 -31.68209888 -0.4349087 -39.03515625 7.8046875 Z " fill="#000000" transform="translate(49.5078125,6.234375)"/>
<path d="M0 0 C2.625 0.375 2.625 0.375 5 1 C5 2.32 5 3.64 5 5 C5.66 5 6.32 5 7 5 C7 3.68 7 2.36 7 1 C9.375 0.375 9.375 0.375 12 0 C12.66 0.66 13.32 1.32 14 2 C13.625 4.625 13.625 4.625 13 7 C11.68 7 10.36 7 9 7 C9 7.66 9 8.32 9 9 C10.32 9 11.64 9 13 9 C13.625 11.375 13.625 11.375 14 14 C13.34 14.66 12.68 15.32 12 16 C9.375 15.625 9.375 15.625 7 15 C7 13.68 7 12.36 7 11 C6.34 11 5.68 11 5 11 C5 12.32 5 13.64 5 15 C2.625 15.625 2.625 15.625 0 16 C-0.66 15.34 -1.32 14.68 -2 14 C-1.625 11.375 -1.625 11.375 -1 9 C0.32 9 1.64 9 3 9 C3 8.34 3 7.68 3 7 C1.68 7 0.36 7 -1 7 C-1.625 4.625 -1.625 4.625 -2 2 C-1.34 1.34 -0.68 0.68 0 0 Z " fill="#000000" transform="translate(26,24)"/>
</svg>
