<?xml version="1.0" encoding="UTF-8"?>
<svg version="1.1" xmlns="http://www.w3.org/2000/svg" width="64" height="64">
<path d="M0 0 C5.94 0 11.88 0 18 0 C18.48828125 2.31119792 18.9765625 4.62239583 19.46484375 6.93359375 C19.80752994 8.97661204 19.80752994 8.97661204 21 10 C23.02408755 9.90997602 25.04544287 9.75358962 27.0625 9.5625 C28.16722656 9.46066406 29.27195313 9.35882813 30.41015625 9.25390625 C31.26480469 9.17011719 32.11945312 9.08632812 33 9 C39.51936219 18.22551253 39.51936219 18.22551253 41 24 C39.37660195 25.70884005 37.70680947 27.37446717 36 29 C35.34 29 34.68 29 34 29 C34 30.98 34 32.96 34 35 C34.598125 35.268125 35.19625 35.53625 35.8125 35.8125 C37.97224808 36.98493467 39.35790256 38.19369282 41 40 C39.51194289 45.80342274 36.40902445 50.17590879 33 55 C32.14535156 54.91621094 31.29070313 54.83242188 30.41015625 54.74609375 C29.30542969 54.64425781 28.20070312 54.54242188 27.0625 54.4375 C25.96035156 54.33308594 24.85820313 54.22867188 23.72265625 54.12109375 C22.82417969 54.08113281 21.92570312 54.04117188 21 54 C19.43413992 55.56586008 19.38905307 57.4251488 18.9375 59.5625 C18.628125 61.026875 18.31875 62.49125 18 64 C12.06 64 6.12 64 0 64 C-0.48828125 61.68880208 -0.9765625 59.37760417 -1.46484375 57.06640625 C-1.80752994 55.02338796 -1.80752994 55.02338796 -3 54 C-5.02408755 54.09002398 -7.04544287 54.24641038 -9.0625 54.4375 C-10.71958984 54.59025391 -10.71958984 54.59025391 -12.41015625 54.74609375 C-13.26480469 54.82988281 -14.11945312 54.91367187 -15 55 C-21.51936219 45.77448747 -21.51936219 45.77448747 -23 40 C-21.37660195 38.29115995 -19.70680947 36.62553283 -18 35 C-17.34 35 -16.68 35 -16 35 C-16 33.02 -16 31.04 -16 29 C-16.598125 28.731875 -17.19625 28.46375 -17.8125 28.1875 C-19.97224808 27.01506533 -21.35790256 25.80630718 -23 24 C-21.49579121 18.13358573 -18.42383114 13.91245338 -15 9 C-11.04 9.33 -7.08 9.66 -3 10 C-2.690625 8.906875 -2.38125 7.81375 -2.0625 6.6875 C-1.41662103 4.44592006 -0.7376883 2.2130649 0 0 Z M0 27 C-1.45147903 29.90295805 -1.37239025 31.77261779 -1 35 C0.81310142 37.92937654 2.87295899 40.43647949 6 42 C8.96395382 42.40417552 11.08904926 42.56382171 13.69140625 40.953125 C17.01459858 38.2305096 18.79236926 36.5226254 19.375 32.25 C18.8528401 27.7246142 17.15770622 26.2328897 14 23 C7.90155699 19.95077849 4.31307452 22.78722954 0 27 Z " fill="#000000" transform="translate(23,0)"/>
</svg>
