<?xml version="1.0" encoding="UTF-8"?>
<svg version="1.1" xmlns="http://www.w3.org/2000/svg" width="64" height="64">
<path d="M0 0 C0.87173859 -0.00570007 1.74347717 -0.01140015 2.64163208 -0.01727295 C4.48584786 -0.02671683 6.33008047 -0.0332545 8.17431641 -0.03710938 C10.99020936 -0.04681433 13.80537209 -0.07784286 16.62109375 -0.109375 C18.41405817 -0.11590543 20.20702781 -0.12115575 22 -0.125 C23.25960037 -0.1435202 23.25960037 -0.1435202 24.54464722 -0.16241455 C30.25432114 -0.14074541 33.4748589 0.92487906 37.8828125 4.703125 C41.04172506 8.49382007 40.31249323 13.41562413 40.3359375 18.0703125 C40.34163757 18.94205109 40.34733765 19.81378967 40.35321045 20.71194458 C40.36265433 22.55616036 40.369192 24.40039297 40.37304688 26.24462891 C40.38275183 29.06052186 40.41378036 31.87568459 40.4453125 34.69140625 C40.45184293 36.48437067 40.45709325 38.27734031 40.4609375 40.0703125 C40.4732843 40.91004608 40.4856311 41.74977966 40.49835205 42.61495972 C40.47668291 48.32463364 39.41105844 51.5451714 35.6328125 55.953125 C31.84211743 59.11203756 26.92031337 58.38280573 22.265625 58.40625 C21.39388641 58.41195007 20.52214783 58.41765015 19.62399292 58.42352295 C17.77977714 58.43296683 15.93554453 58.4395045 14.09130859 58.44335938 C11.27541564 58.45306433 8.46025291 58.48409286 5.64453125 58.515625 C3.85156683 58.52215543 2.05859719 58.52740575 0.265625 58.53125 C-0.57410858 58.5435968 -1.41384216 58.5559436 -2.27902222 58.56866455 C-8.03401189 58.54682343 -11.37105818 57.52710747 -15.6796875 53.515625 C-16.0715625 53.0825 -16.4634375 52.649375 -16.8671875 52.203125 C-15.40973326 48.83976906 -13.55600896 46.65778495 -10.953125 44.09375 C-10.19257813 43.33964844 -9.43203125 42.58554687 -8.6484375 41.80859375 C-7.854375 41.03128906 -7.0603125 40.25398438 -6.2421875 39.453125 C-5.44039062 38.66035156 -4.63859375 37.86757813 -3.8125 37.05078125 C-1.83515904 35.09698007 0.14670159 33.14800397 2.1328125 31.203125 C5.46614583 32.53645833 8.79947917 33.86979167 12.1328125 35.203125 C16.0928125 31.243125 20.0528125 27.283125 24.1328125 23.203125 C26.1328125 26.203125 26.1328125 26.203125 26.1328125 28.203125 C26.7928125 28.203125 27.4528125 28.203125 28.1328125 28.203125 C28.1328125 24.573125 28.1328125 20.943125 28.1328125 17.203125 C24.8328125 17.203125 21.5328125 17.203125 18.1328125 17.203125 C18.1328125 18.193125 18.1328125 19.183125 18.1328125 20.203125 C19.7828125 20.203125 21.4328125 20.203125 23.1328125 20.203125 C15.32073196 29.51856124 15.32073196 29.51856124 12.1328125 32.203125 C9.02091576 32.11159863 7.78606873 30.97196249 5.1328125 29.203125 C1.37783087 29.46795401 -0.37705832 31.38433095 -2.90625 34.01953125 C-4.02386719 35.16518555 -4.02386719 35.16518555 -5.1640625 36.33398438 C-5.93234375 37.13642578 -6.700625 37.93886719 -7.4921875 38.765625 C-9.02150369 40.35464041 -10.55513772 41.93951534 -12.09375 43.51953125 C-12.77002441 44.22537354 -13.44629883 44.93121582 -14.14306641 45.65844727 C-15.8671875 47.203125 -15.8671875 47.203125 -17.8671875 47.203125 C-17.94148665 41.88292478 -17.99585997 36.56302831 -18.03198242 31.24243164 C-18.04704505 29.43345883 -18.06749927 27.6245224 -18.09350586 25.81567383 C-18.1300007 23.21165985 -18.14693907 20.6081298 -18.16015625 18.00390625 C-18.17564011 17.19850906 -18.19112396 16.39311188 -18.20707703 15.56330872 C-18.20874961 9.95036783 -17.07901431 6.78358962 -13.3671875 2.453125 C-9.57649243 -0.70578756 -4.65468837 0.02344427 0 0 Z " fill="#000000" transform="translate(20.8671875,2.796875)"/>
</svg>
