<?xml version="1.0" encoding="UTF-8"?>
<svg version="1.1" xmlns="http://www.w3.org/2000/svg" width="64" height="64">
<path d="M0 0 C0.90128632 -0.0127597 1.80257263 -0.02551941 2.73117065 -0.03866577 C3.69789703 -0.04089142 4.66462341 -0.04311707 5.66064453 -0.04541016 C7.16233688 -0.05539536 7.16233688 -0.05539536 8.69436646 -0.06558228 C10.81087407 -0.07570082 12.92741354 -0.08039954 15.04394531 -0.08007812 C18.2747888 -0.08444741 21.50426177 -0.12076545 24.73486328 -0.15869141 C26.79345237 -0.16456056 28.85204793 -0.16852929 30.91064453 -0.17041016 C32.35466141 -0.19196671 32.35466141 -0.19196671 33.82785034 -0.21395874 C39.53071757 -0.17529459 42.95960436 0.37709481 47.41845703 4.29052734 C52.02139301 8.98722683 50.9319814 14.97812737 50.91845703 21.16552734 C50.94681641 22.33728516 50.97517578 23.50904297 51.00439453 24.71630859 C51.02623467 34.33689159 51.02623467 34.33689159 48.13720703 37.98583984 C44.37242548 41.17724949 41.78373157 42.5333297 36.83691406 42.58105469 C35.93562775 42.59381439 35.03434143 42.6065741 34.10574341 42.61972046 C32.65565384 42.62305893 32.65565384 42.62305893 31.17626953 42.62646484 C30.1751413 42.63312164 29.17401306 42.63977844 28.14254761 42.64663696 C26.02603999 42.65675551 23.90950053 42.66145423 21.79296875 42.66113281 C18.56212526 42.6655021 15.3326523 42.70182014 12.10205078 42.73974609 C10.04346169 42.74561524 7.98486613 42.74958398 5.92626953 42.75146484 C4.96359161 42.76583588 4.0009137 42.78020691 3.00906372 42.79501343 C-2.69380351 42.75634928 -6.1226903 42.20395987 -10.58154297 38.29052734 C-15.18447894 33.59382786 -14.09506734 27.60292732 -14.08154297 21.41552734 C-14.12408203 19.65789063 -14.12408203 19.65789063 -14.16748047 17.86474609 C-14.18932061 8.2441631 -14.18932061 8.2441631 -11.30029297 4.59521484 C-7.53551142 1.4038052 -4.9468175 0.04772498 0 0 Z M-8.58154297 9.29052734 C-9.91524338 13.29162857 -9.80489772 16.97556137 -9.83154297 21.16552734 C-9.85216797 21.96861328 -9.87279297 22.77169922 -9.89404297 23.59912109 C-9.92518379 28.32474115 -9.68493215 31.47654905 -6.58154297 35.29052734 C-3.48781953 37.35300964 -2.78953801 37.54585883 0.71875 37.58105469 C1.58329803 37.59381439 2.44784607 37.6065741 3.33859253 37.61972046 C4.26986969 37.62194611 5.20114685 37.62417175 6.16064453 37.62646484 C7.1211673 37.63312164 8.08169006 37.63977844 9.07131958 37.64663696 C11.103842 37.6567642 13.13639768 37.66145396 15.16894531 37.66113281 C18.2748108 37.66550112 21.37924974 37.70180666 24.48486328 37.73974609 C26.46011884 37.74561523 28.43538115 37.74958398 30.41064453 37.75146484 C31.33787323 37.76583588 32.26510193 37.78020691 33.22042847 37.79501343 C37.43707305 37.76521951 39.80248772 37.66081593 43.48144531 35.44921875 C47.21792866 31.28511669 46.63485677 26.69916864 46.66845703 21.41552734 C46.68908203 20.61244141 46.70970703 19.80935547 46.73095703 18.98193359 C46.76209786 14.25631354 46.52184621 11.10450564 43.41845703 7.29052734 C40.32473359 5.22804505 39.62645208 5.03519586 36.11816406 5 C35.25361603 4.9872403 34.38906799 4.97448059 33.49832153 4.96133423 C32.56704437 4.95910858 31.63576721 4.95688293 30.67626953 4.95458984 C29.71574677 4.94793304 28.755224 4.94127625 27.76559448 4.93441772 C25.73307206 4.92429049 23.70051638 4.91960073 21.66796875 4.91992188 C18.56210326 4.91555357 15.45766432 4.87924803 12.35205078 4.84130859 C10.37679522 4.83543946 8.40153291 4.83147071 6.42626953 4.82958984 C5.03542648 4.80803329 5.03542648 4.80803329 3.6164856 4.78604126 C-1.68285035 4.82348525 -4.84222254 5.12326352 -8.58154297 9.29052734 Z " fill="#000000" transform="translate(13.58154296875,10.70947265625)"/>
</svg>
